<svg height="908" viewBox="-55 -21 681 681.332" width="908" xmlns="http://www.w3.org/2000/svg"><path d="M300.566 168.965c-.898 0-1.476-.016-1.691-.02l-15.715-.41-2.375-15.543c-.433-2.824-10.117-69.566 27.242-111.937h.004C345.391-1.316 412.821-.06 415.676.02l15.722.41 2.375 15.543c.426 2.824 10.118 69.566-27.246 111.933-34.562 39.192-94.851 41.059-105.96 41.059zM377.7 638.75c-13.63 0-27.563-1.75-41.696-5.27a175.02 175.02 0 01-51.82-22.25c-16.032 10.196-33.407 17.66-51.829 22.25-13.62 3.391-27.042 5.079-40.156 5.079-37.34 0-72.23-13.657-102.523-40.442-36.73-32.48-64.469-82.332-80.215-144.152-9.586-37.633-13.27-73.88-10.95-107.723 2.454-35.816 11.528-67.078 26.981-92.93 20.762-34.75 52.867-58.382 92.836-68.34 30.938-7.702 63.895-6.792 95.313 2.637 24.933 7.48 49.039 20.344 70.543 37.543 21.5-17.199 45.605-30.066 70.539-37.543 31.422-9.43 64.375-10.34 95.312-2.636 22.66 5.644 42.906 15.742 60.18 30.011l17.598 14.536-17.641 14.484c-24.621 20.219-38.75 50.062-38.75 81.879 0 48.336 32.648 90.504 79.383 102.547l17.82 4.59-4.21 17.914a410.358 410.358 0 01-1.661 6.808c-15.613 61.313-44.164 110.633-82.563 142.625-30.52 25.426-65.386 38.383-102.492 38.383zm0 0"/></svg>