<svg xmlns="http://www.w3.org/2000/svg" width="139" height="413"><defs><clipPath id="a"><path fill="#fff" d="M23.688 183.969h15.624v19.625H23.688z"/></clipPath><clipPath id="b"><path fill="#fff" d="M113.625 183.969H139v17.655h-25.375z"/></clipPath><clipPath id="c"><path fill="#fff" d="M63 140h25v273H63z"/></clipPath><clipPath id="d"><path fill="#fff" d="M99.937 2h1.938v411h-1.938z"/></clipPath><clipPath id="e"><path fill="#fff" d="M12.89 162.469c7.016 0 12.704 13.137 12.704 29.343 0 16.207-5.688 29.344-12.703 29.344-7.016 0-12.703-13.137-12.703-29.344 0-16.206 5.687-29.343 12.703-29.343z"/></clipPath><clipPath id="f"><path fill="#fff" d="M60.844 9.781h33.219v131.156h-33.22z"/></clipPath><clipPath id="g"><path fill="#fff" d="M74.497 279.875h.006c5.383 0 9.747 4.364 9.747 9.747v.1c0 5.383-4.364 9.747-9.747 9.747h-.006c-5.383 0-9.747-4.364-9.747-9.746v-.101c0-5.383 4.364-9.747 9.747-9.747z"/></clipPath><clipPath id="h"><path fill="#fff" d="M74.497 242.75h.006c5.383 0 9.747 4.364 9.747 9.747v.037c0 5.383-4.364 9.747-9.747 9.747h-.006c-5.383 0-9.747-4.364-9.747-9.747v-.037c0-5.383 4.364-9.747 9.747-9.747z"/></clipPath><clipPath id="i"><path fill="#fff" d="M74.497 201.624h.006c5.383 0 9.747 4.365 9.747 9.747v.038a9.747 9.747 0 01-9.747 9.747h-.006a9.747 9.747 0 01-9.747-9.747v-.038c0-5.382 4.364-9.747 9.747-9.747z"/></clipPath><clipPath id="j"><path fill="#fff" d="M39.344 0h76.187v413H39.344z"/></clipPath></defs><path fill="none" stroke="#fff" stroke-miterlimit="20" stroke-width="2" d="M23.688 183.969v0h15.624v19.625H23.688v0z" clip-path="url(&quot;#a&quot;)"/><path fill="none" stroke="#fff" stroke-miterlimit="20" stroke-width="2" d="M113.625 183.969v0H139v17.655h-25.375v0z" clip-path="url(&quot;#b&quot;)"/><path fill="none" stroke="#fff" stroke-miterlimit="20" stroke-width="2" d="M63 140v0h25v273H63v0z" clip-path="url(&quot;#c&quot;)"/><path fill="none" stroke="#fff" stroke-miterlimit="20" stroke-width="2" d="M99.937 2v0h1.938v411h-1.938v0z" clip-path="url(&quot;#d&quot;)"/><path fill="none" stroke="#fff" stroke-miterlimit="20" stroke-width="2" d="M12.89 162.469c7.016 0 12.704 13.137 12.704 29.343 0 16.207-5.688 29.344-12.703 29.344-7.016 0-12.703-13.137-12.703-29.344 0-16.206 5.687-29.343 12.703-29.343z" clip-path="url(&quot;#e&quot;)"/><path fill="none" stroke="#fff" stroke-miterlimit="20" stroke-width="2" d="M60.844 9.781v0h33.219v131.156h-33.22v0z" clip-path="url(&quot;#f&quot;)"/><path fill="none" stroke="#fff" stroke-miterlimit="20" stroke-width="2" d="M74.497 279.875h.006c5.383 0 9.747 4.364 9.747 9.747v.1c0 5.383-4.364 9.747-9.747 9.747h-.006c-5.383 0-9.747-4.364-9.747-9.746v-.101c0-5.383 4.364-9.747 9.747-9.747z" clip-path="url(&quot;#g&quot;)"/><path fill="none" stroke="#fff" stroke-miterlimit="20" stroke-width="2" d="M74.497 242.75h.006c5.383 0 9.747 4.364 9.747 9.747v.037c0 5.383-4.364 9.747-9.747 9.747h-.006c-5.383 0-9.747-4.364-9.747-9.747v-.037c0-5.383 4.364-9.747 9.747-9.747z" clip-path="url(&quot;#h&quot;)"/><path fill="none" stroke="#fff" stroke-miterlimit="20" stroke-width="2" d="M74.497 201.624h.006c5.383 0 9.747 4.365 9.747 9.747v.038a9.747 9.747 0 01-9.747 9.747h-.006a9.747 9.747 0 01-9.747-9.747v-.038c0-5.382 4.364-9.747 9.747-9.747z" clip-path="url(&quot;#i&quot;)"/><path fill="none" stroke="#fff" stroke-miterlimit="20" stroke-width="2" d="M39.344 0v0h76.187v413H39.344v0z" clip-path="url(&quot;#j&quot;)"/></svg>