<svg xmlns="http://www.w3.org/2000/svg" fill="#006ead" width="512" height="512"><path d="M487.303 275.614c17.544-17.545 17.544-46.094-.001-63.639a44.767 44.767 0 00-13.961-9.486c9.814-17.182 7.397-39.503-7.253-54.153a44.928 44.928 0 00-14.407-9.701c8.741-16.695 6.36-38.2-8.093-52.651-14.903-14.904-37.26-16.95-54.139-7.278a44.967 44.967 0 00-9.501-13.936c-17.586-17.587-46.051-17.589-63.639 0L202.207 178.871v-31.072c0-24.812-20.186-44.997-44.997-44.997-24.476 0-44.449 19.643-44.986 43.992L91.111 319.329a14.998 14.998 0 004.282 12.428l114.85 114.85a14.997 14.997 0 0012.506 4.273c66.01-8.432 128.276-38.99 175.331-86.044l89.223-89.222zM226.162 420.1L121.777 315.714l20.324-166.094a14.99 14.99 0 00.111-1.822c0-8.27 6.728-14.997 14.997-14.997s14.997 6.728 14.997 14.997v67.286a14.998 14.998 0 009.26 13.858 14.998 14.998 0 0016.347-3.252L337.522 85.982c5.862-5.862 15.35-5.862 21.213 0 5.863 5.864 5.863 15.35 0 21.213l-86.673 86.673c-5.858 5.857-5.858 15.355 0 21.213 5.857 5.858 15.355 5.858 21.213 0l107.888-107.886c5.861-5.862 15.349-5.862 21.212 0 5.849 5.849 5.849 15.365 0 21.213L314.489 236.294c-5.858 5.857-5.858 15.355 0 21.213 5.856 5.858 15.354 5.858 21.213 0l87.961-87.96c5.86-5.861 15.349-5.862 21.212 0 5.849 5.849 5.849 15.365 0 21.214l-87.959 87.959c-5.858 5.857-5.858 15.355 0 21.213.366.366.746.709 1.139 1.03 5.891 4.806 14.583 4.462 20.074-1.03l66.75-66.75c5.85-5.844 15.363-5.843 21.209.003 5.849 5.849 5.849 15.366.001 21.214l-89.221 89.22c-40.664 40.666-93.94 67.651-150.706 76.48zM497 362c-8.284 0-15 6.716-15 15 0 57.897-47.103 105-105 105-8.284 0-15 6.716-15 15s6.716 15 15 15c74.439 0 135-60.561 135-135 0-8.284-6.716-15-15-15z"/><path d="M422 377c0 24.813-20.187 45-45 45-8.284 0-15 6.716-15 15s6.716 15 15 15c41.355 0 75-33.645 75-75 0-8.284-6.716-15-15-15s-15 6.716-15 15zM135 30c8.284 0 15-6.716 15-15s-6.716-15-15-15C60.561 0 0 60.561 0 135c0 8.284 6.716 15 15 15s15-6.716 15-15C30 77.103 77.103 30 135 30z"/><path d="M135 90c8.284 0 15-6.716 15-15s-6.716-15-15-15c-41.355 0-75 33.645-75 75 0 8.284 6.716 15 15 15s15-6.716 15-15c0-24.813 20.187-45 45-45z"/></svg>