<svg xmlns="http://www.w3.org/2000/svg" width="271" height="413"><defs><clipPath id="a"><path fill="#fff" d="M155.688 183.969h15.624v19.625h-15.624z"/></clipPath><clipPath id="b"><path fill="#fff" d="M245.625 183.969H271v17.655h-25.375z"/></clipPath><clipPath id="c"><path fill="#fff" d="M195 140h25v273h-25z"/></clipPath><clipPath id="d"><path fill="#fff" d="M231.937 2h1.938v411h-1.938z"/></clipPath><clipPath id="e"><path fill="#fff" d="M144.89 162.469c7.016 0 12.704 13.137 12.704 29.343 0 16.207-5.688 29.344-12.703 29.344-7.016 0-12.703-13.137-12.703-29.344 0-16.206 5.687-29.343 12.703-29.343z"/></clipPath><clipPath id="f"><path fill="#fff" d="M192.844 9.781h33.219v131.156h-33.22z"/></clipPath><clipPath id="g"><path fill="#fff" d="M206.497 279.875h.006c5.383 0 9.747 4.364 9.747 9.747v.1c0 5.383-4.364 9.747-9.747 9.747h-.006c-5.383 0-9.747-4.364-9.747-9.746v-.101c0-5.383 4.364-9.747 9.747-9.747z"/></clipPath><clipPath id="h"><path fill="#fff" d="M206.497 242.75h.006c5.383 0 9.747 4.364 9.747 9.747v.037c0 5.383-4.364 9.747-9.747 9.747h-.006c-5.383 0-9.747-4.364-9.747-9.747v-.037c0-5.383 4.364-9.747 9.747-9.747z"/></clipPath><clipPath id="i"><path fill="#fff" d="M206.497 201.624h.006c5.383 0 9.747 4.365 9.747 9.747v.038a9.747 9.747 0 01-9.747 9.747h-.006a9.747 9.747 0 01-9.747-9.747v-.038c0-5.382 4.364-9.747 9.747-9.747z"/></clipPath><clipPath id="j"><path fill="#fff" d="M171.344 0h76.187v413h-76.187z"/></clipPath><clipPath id="k"><path fill="#fff" d="M170.875 76.969h23.188v11h-23.188z"/></clipPath><clipPath id="l"><path fill="#fff" d="M78.83 43.376l104.988 28.146-.316 1.182L78.514 44.557z"/></clipPath></defs><text dominant-baseline="text-before-edge" style="text-transform:uppercase;line-height:60px" fill="#fff" font-family="'Roboto','Roboto-Medium'" font-size="33.04" font-weight="700" transform="translate(0 35)"><tspan style="font-kerning:normal" letter-spacing="-.83">20 мм</tspan></text><path fill="none" stroke="#fff" stroke-miterlimit="20" stroke-width="2" d="M155.688 183.969v0h15.624v19.625h-15.624v0z" clip-path="url(&quot;#a&quot;)"/><path fill="none" stroke="#fff" stroke-miterlimit="20" stroke-width="2" d="M245.625 183.969v0H271v17.655h-25.375v0z" clip-path="url(&quot;#b&quot;)"/><path fill="none" stroke="#fff" stroke-miterlimit="20" stroke-width="2" d="M195 140v0h25v273h-25v0z" clip-path="url(&quot;#c&quot;)"/><path fill="none" stroke="#fff" stroke-miterlimit="20" stroke-width="2" d="M231.937 2v0h1.938v411h-1.938v0z" clip-path="url(&quot;#d&quot;)"/><path fill="none" stroke="#fff" stroke-miterlimit="20" stroke-width="2" d="M144.89 162.469c7.016 0 12.704 13.137 12.704 29.343 0 16.207-5.688 29.344-12.703 29.344-7.016 0-12.703-13.137-12.703-29.344 0-16.206 5.687-29.343 12.703-29.343z" clip-path="url(&quot;#e&quot;)"/><path fill="none" stroke="#fff" stroke-miterlimit="20" stroke-width="2" d="M192.844 9.781v0h33.219v131.156h-33.22v0z" clip-path="url(&quot;#f&quot;)"/><path fill="none" stroke="#fff" stroke-miterlimit="20" stroke-width="2" d="M206.497 279.875h.006c5.383 0 9.747 4.364 9.747 9.747v.1c0 5.383-4.364 9.747-9.747 9.747h-.006c-5.383 0-9.747-4.364-9.747-9.746v-.101c0-5.383 4.364-9.747 9.747-9.747z" clip-path="url(&quot;#g&quot;)"/><path fill="none" stroke="#fff" stroke-miterlimit="20" stroke-width="2" d="M206.497 242.75h.006c5.383 0 9.747 4.364 9.747 9.747v.037c0 5.383-4.364 9.747-9.747 9.747h-.006c-5.383 0-9.747-4.364-9.747-9.747v-.037c0-5.383 4.364-9.747 9.747-9.747z" clip-path="url(&quot;#h&quot;)"/><path fill="none" stroke="#fff" stroke-miterlimit="20" stroke-width="2" d="M206.497 201.624h.006c5.383 0 9.747 4.365 9.747 9.747v.038a9.747 9.747 0 01-9.747 9.747h-.006a9.747 9.747 0 01-9.747-9.747v-.038c0-5.382 4.364-9.747 9.747-9.747z" clip-path="url(&quot;#i&quot;)"/><path fill="none" stroke="#fff" stroke-miterlimit="20" stroke-width="2" d="M171.344 0v0h76.187v413h-76.187v0z" clip-path="url(&quot;#j&quot;)"/><path fill="#f7de0d" d="M170.875 76.969h23.188v11h-23.188z"/><path fill="none" stroke="#f7de0d" stroke-miterlimit="20" stroke-width="2" d="M170.875 76.969v0h23.188v11h-23.188v0z" clip-path="url(&quot;#k&quot;)"/><path fill="#f7de0d" d="M78.83 43.376l104.988 28.146-.316 1.182L78.514 44.557z"/><path fill="none" stroke="#f7de0d" stroke-miterlimit="20" stroke-width="2" d="M78.83 43.376v0l104.988 28.146v0l-.316 1.182v0L78.514 44.557v0z" clip-path="url(&quot;#l&quot;)"/></svg>